<?xml version="1.0" standalone="no"?>
<!DOCTYPE svg PUBLIC "-//W3C//DTD SVG 20010904//EN"
 "http://www.w3.org/TR/2001/REC-SVG-20010904/DTD/svg10.dtd">
<svg version="1.0" xmlns="http://www.w3.org/2000/svg"
 width="360.000000pt" height="360.000000pt" viewBox="0 0 360.000000 360.000000"
 preserveAspectRatio="xMidYMid meet">

<g transform="translate(0.000000,360.000000) scale(0.100000,-0.100000)"
fill="#000000" stroke="none">
<path d="M1651 3179 c-251 -45 -465 -215 -554 -440 -44 -111 -63 -262 -127
-1049 -42 -506 -87 -749 -189 -1019 l-36 -94 -65 -22 c-81 -26 -105 -39 -141
-76 -64 -66 -114 -186 -149 -356 -11 -55 -20 -106 -20 -112 0 -8 397 -11 1410
-11 l1410 0 -4 23 c-3 12 -8 49 -11 82 -17 157 -71 301 -139 370 -34 33 -60
47 -133 71 l-91 29 -41 115 c-107 296 -138 473 -191 1100 -47 563 -70 775 -91
858 -38 154 -121 284 -239 376 -72 57 -193 119 -275 140 -74 20 -251 28 -324
15z m216 -351 c74 -11 170 -48 237 -93 143 -95 222 -274 242 -549 7 -105 16
-109 40 -16 11 46 36 64 48 35 6 -17 -41 -321 -54 -344 -4 -9 0 -27 12 -48 42
-71 -6 -147 -89 -142 l-43 3 -45 -79 c-25 -43 -61 -99 -80 -123 -42 -54 -50
-90 -41 -196 9 -113 30 -195 75 -292 l39 -83 -58 -40 c-132 -93 -313 -135
-465 -107 -44 8 -105 24 -136 35 -56 21 -171 90 -183 109 -3 6 10 43 29 84 51
108 75 213 75 330 l0 100 -47 61 c-27 34 -64 93 -85 131 l-36 70 -50 -3 c-44
-2 -52 1 -76 29 -31 38 -34 87 -7 121 14 17 17 29 10 42 -14 25 -62 325 -55
343 13 33 35 13 52 -46 21 -76 34 -85 34 -23 0 138 34 302 85 408 42 88 89
142 166 194 62 42 197 91 248 91 27 0 30 4 46 73 28 118 28 118 45 22 l16 -90
51 -7z"/>
<path d="M1480 2356 c-85 -12 -135 -31 -160 -61 -18 -22 -8 -28 26 -14 16 7
93 14 172 17 148 5 163 10 124 45 -26 24 -65 27 -162 13z"/>
<path d="M1950 2363 c-24 -9 -60 -45 -54 -54 3 -5 51 -9 107 -9 97 0 192 -10
230 -25 35 -14 16 16 -28 44 -33 21 -64 31 -113 35 -37 4 -80 9 -97 11 -16 2
-37 1 -45 -2z"/>
<path d="M1441 2199 c-38 -15 -82 -50 -76 -60 11 -16 61 -9 80 11 24 27 33 25
27 -5 -5 -30 14 -40 63 -31 29 6 35 11 35 33 0 25 0 25 28 8 l27 -18 -20 23
c-38 44 -110 61 -164 39z"/>
<path d="M1984 2181 c-38 -23 -58 -49 -26 -32 28 15 32 14 32 -8 0 -24 5 -27
53 -36 36 -7 37 -6 43 24 7 32 7 32 28 13 15 -13 30 -17 56 -13 l35 6 -38 29
c-51 39 -136 47 -183 17z"/>
<path d="M1690 1675 c-8 -2 -32 -7 -54 -10 -28 -5 -36 -9 -28 -17 15 -15 310
-16 336 -1 16 9 8 12 -46 22 -59 10 -172 13 -208 6z"/>
<path d="M1570 1645 c0 -3 9 -25 21 -48 41 -81 124 -147 185 -147 65 0 166 80
194 155 17 44 12 46 -36 15 -55 -34 -138 -54 -191 -44 -47 8 -153 53 -153 65
0 5 -4 9 -10 9 -5 0 -10 -2 -10 -5z"/>
</g>
</svg>
